<mxfile host="app.diagrams.net" modified="2023-10-29T21:29:15.349Z" agent="Mozilla/5.0 (Windows NT 10.0; Win64; x64) AppleWebKit/537.36 (KHTML, like Gecko) Chrome/118.0.0.0 Safari/537.36" etag="H_SdlDLWBvd0BaF8F8Ob" version="22.0.8" type="github">
  <diagram name="Page-1" id="nP30GmvI7ZIDw6K-b8WV">
    <mxGraphModel dx="1872" dy="1006" grid="1" gridSize="10" guides="1" tooltips="1" connect="1" arrows="1" fold="1" page="1" pageScale="1" pageWidth="850" pageHeight="1100" math="0" shadow="0">
      <root>
        <mxCell id="0" />
        <mxCell id="1" parent="0" />
        <mxCell id="vhAgxtT7I6fIa3yYerm1-18" value="" style="edgeStyle=orthogonalEdgeStyle;rounded=0;orthogonalLoop=1;jettySize=auto;html=1;" parent="1" source="vhAgxtT7I6fIa3yYerm1-6" target="vhAgxtT7I6fIa3yYerm1-8" edge="1">
          <mxGeometry relative="1" as="geometry">
            <mxPoint x="500.0050000000001" y="245" as="targetPoint" />
          </mxGeometry>
        </mxCell>
        <mxCell id="vhAgxtT7I6fIa3yYerm1-24" style="edgeStyle=orthogonalEdgeStyle;rounded=0;orthogonalLoop=1;jettySize=auto;html=1;" parent="1" source="vhAgxtT7I6fIa3yYerm1-6" target="vhAgxtT7I6fIa3yYerm1-15" edge="1">
          <mxGeometry relative="1" as="geometry" />
        </mxCell>
        <mxCell id="vhAgxtT7I6fIa3yYerm1-6" value="" style="sketch=0;outlineConnect=0;fontColor=#232F3E;gradientColor=none;fillColor=#ED7100;strokeColor=none;dashed=0;verticalLabelPosition=bottom;verticalAlign=top;align=center;html=1;fontSize=12;fontStyle=0;aspect=fixed;pointerEvents=1;shape=mxgraph.aws4.container_2;" parent="1" vertex="1">
          <mxGeometry x="310" y="197.13" width="163.75" height="105.75" as="geometry" />
        </mxCell>
        <mxCell id="vhAgxtT7I6fIa3yYerm1-14" value="" style="edgeStyle=orthogonalEdgeStyle;rounded=0;orthogonalLoop=1;jettySize=auto;html=1;" parent="1" source="vhAgxtT7I6fIa3yYerm1-8" target="vhAgxtT7I6fIa3yYerm1-9" edge="1">
          <mxGeometry relative="1" as="geometry" />
        </mxCell>
        <mxCell id="vhAgxtT7I6fIa3yYerm1-8" value="" style="sketch=0;outlineConnect=0;fontColor=#232F3E;gradientColor=none;fillColor=#7AA116;strokeColor=none;dashed=0;verticalLabelPosition=bottom;verticalAlign=top;align=center;html=1;fontSize=12;fontStyle=0;aspect=fixed;pointerEvents=1;shape=mxgraph.aws4.standard_ia;" parent="1" vertex="1">
          <mxGeometry x="610" y="187.5" width="120.19" height="125" as="geometry" />
        </mxCell>
        <mxCell id="vhAgxtT7I6fIa3yYerm1-23" style="edgeStyle=orthogonalEdgeStyle;rounded=0;orthogonalLoop=1;jettySize=auto;html=1;" parent="1" source="vhAgxtT7I6fIa3yYerm1-9" target="vhAgxtT7I6fIa3yYerm1-15" edge="1">
          <mxGeometry relative="1" as="geometry" />
        </mxCell>
        <mxCell id="vhAgxtT7I6fIa3yYerm1-9" value="" style="outlineConnect=0;dashed=0;verticalLabelPosition=bottom;verticalAlign=top;align=center;html=1;shape=mxgraph.aws3.lambda_function;fillColor=#5294CF;gradientColor=none;" parent="1" vertex="1">
          <mxGeometry x="607.64" y="445" width="124.91" height="130" as="geometry" />
        </mxCell>
        <mxCell id="vhAgxtT7I6fIa3yYerm1-16" style="edgeStyle=orthogonalEdgeStyle;rounded=0;orthogonalLoop=1;jettySize=auto;html=1;" parent="1" source="vhAgxtT7I6fIa3yYerm1-19" target="vhAgxtT7I6fIa3yYerm1-6" edge="1">
          <mxGeometry relative="1" as="geometry">
            <mxPoint x="180" y="360" as="targetPoint" />
            <mxPoint x="213.67000000000007" y="275" as="sourcePoint" />
          </mxGeometry>
        </mxCell>
        <mxCell id="vhAgxtT7I6fIa3yYerm1-22" value="" style="edgeStyle=orthogonalEdgeStyle;rounded=0;orthogonalLoop=1;jettySize=auto;html=1;" parent="1" source="vhAgxtT7I6fIa3yYerm1-15" target="vhAgxtT7I6fIa3yYerm1-6" edge="1">
          <mxGeometry relative="1" as="geometry">
            <mxPoint x="396.32000000000016" y="370" as="targetPoint" />
          </mxGeometry>
        </mxCell>
        <mxCell id="vhAgxtT7I6fIa3yYerm1-31" style="edgeStyle=orthogonalEdgeStyle;rounded=0;orthogonalLoop=1;jettySize=auto;html=1;" parent="1" source="vhAgxtT7I6fIa3yYerm1-15" target="vhAgxtT7I6fIa3yYerm1-9" edge="1">
          <mxGeometry relative="1" as="geometry" />
        </mxCell>
        <mxCell id="vhAgxtT7I6fIa3yYerm1-15" value="" style="outlineConnect=0;dashed=0;verticalLabelPosition=bottom;verticalAlign=top;align=center;html=1;shape=mxgraph.aws3.dynamo_db;fillColor=#2E73B8;gradientColor=none;" parent="1" vertex="1">
          <mxGeometry x="331.87" y="445" width="120" height="130" as="geometry" />
        </mxCell>
        <mxCell id="vhAgxtT7I6fIa3yYerm1-19" value="" style="html=1;verticalLabelPosition=bottom;align=center;labelBackgroundColor=#ffffff;verticalAlign=top;strokeWidth=2;strokeColor=#0080F0;shadow=0;dashed=0;shape=mxgraph.ios7.icons.user;" parent="1" vertex="1">
          <mxGeometry x="40" y="190" width="130" height="120" as="geometry" />
        </mxCell>
        <mxCell id="vhAgxtT7I6fIa3yYerm1-20" value="File -&amp;gt;" style="text;html=1;strokeColor=none;fillColor=none;align=center;verticalAlign=middle;whiteSpace=wrap;rounded=0;" parent="1" vertex="1">
          <mxGeometry x="190" y="220" width="60" height="20" as="geometry" />
        </mxCell>
        <mxCell id="vhAgxtT7I6fIa3yYerm1-25" value="Docker web server&lt;br&gt;" style="text;html=1;strokeColor=none;fillColor=none;align=center;verticalAlign=middle;whiteSpace=wrap;rounded=0;" parent="1" vertex="1">
          <mxGeometry x="342.81" y="160" width="98.13" height="30" as="geometry" />
        </mxCell>
        <mxCell id="vhAgxtT7I6fIa3yYerm1-26" value="S3 Bucket" style="text;html=1;strokeColor=none;fillColor=none;align=center;verticalAlign=middle;whiteSpace=wrap;rounded=0;" parent="1" vertex="1">
          <mxGeometry x="640.09" y="160" width="60" height="30" as="geometry" />
        </mxCell>
        <mxCell id="vhAgxtT7I6fIa3yYerm1-29" value="Lambda Function&lt;br&gt;" style="text;html=1;strokeColor=none;fillColor=none;align=center;verticalAlign=middle;whiteSpace=wrap;rounded=0;" parent="1" vertex="1">
          <mxGeometry x="690" y="415" width="60" height="30" as="geometry" />
        </mxCell>
        <mxCell id="vhAgxtT7I6fIa3yYerm1-30" value="DyhnamoDB" style="text;html=1;strokeColor=none;fillColor=none;align=center;verticalAlign=middle;whiteSpace=wrap;rounded=0;" parent="1" vertex="1">
          <mxGeometry x="410" y="415" width="60" height="30" as="geometry" />
        </mxCell>
        <mxCell id="vhAgxtT7I6fIa3yYerm1-33" value="File -&amp;gt;" style="text;html=1;strokeColor=none;fillColor=none;align=center;verticalAlign=middle;whiteSpace=wrap;rounded=0;" parent="1" vertex="1">
          <mxGeometry x="510" y="215" width="60" height="30" as="geometry" />
        </mxCell>
        <mxCell id="TYV72Y7tK1jr2BBQdTSE-1" value="&lt;span style=&quot;font-size: 36px;&quot;&gt;TMYC Puzzle Solver Architecture&lt;/span&gt;" style="text;html=1;strokeColor=none;fillColor=none;align=center;verticalAlign=middle;whiteSpace=wrap;rounded=0;" vertex="1" parent="1">
          <mxGeometry x="120" y="20" width="600" height="80" as="geometry" />
        </mxCell>
        <mxCell id="TYV72Y7tK1jr2BBQdTSE-2" value="User" style="text;html=1;strokeColor=none;fillColor=none;align=center;verticalAlign=middle;whiteSpace=wrap;rounded=0;" vertex="1" parent="1">
          <mxGeometry x="75" y="157.5" width="60" height="30" as="geometry" />
        </mxCell>
      </root>
    </mxGraphModel>
  </diagram>
</mxfile>
